<?xml version="1.0" encoding="UTF-8"?>
<svg id="Layer_2" data-name="Layer 2" xmlns="http://www.w3.org/2000/svg" viewBox="0 0 592.52 501.11">
  <defs>
    <style>
      .cls-1 {
        fill: #fff6f4;
        stroke-width: 0px;
      }
    </style>
  </defs>
  <path class="cls-1" d="m67.38,47.01c25.3-11.62,56.13-23.32,92.04-32.15C220.72-.2,274.65-1.45,314.43.97c42.46-1.46,92.84.04,148.84,8.17,41.25,5.99,78.28,14.52,110.53,23.78,2.76,1.18,9.41,4.47,14.09,11.89,7.08,11.22,4.08,23.04,3.52,25.1-21.58,136.95-43.16,273.91-64.73,410.86-1.16,2.58-3.81,7.59-9.25,11.89-5.22,4.13-10.46,5.6-13.21,6.17-42.53,2.32-88.63,3.06-137.83,1.32-37.57-1.33-73.16-3.97-106.57-7.49-35.43-3.6-72.02-7.96-109.65-13.21-37.37-5.21-73.5-10.99-108.33-17.17-5.02-1.67-11.1-4.17-17.61-7.93-6.61-3.81-11.86-7.9-15.85-11.45C3.63,411.88.13,375.58,0,335.01c-.13-42.4,3.46-80.21,8.37-112.29,5.68-33.24,15.18-72.11,31.27-114.06,8.73-22.74,18.21-43.3,27.74-61.65Z"/>
</svg>